<?xml version="1.0" standalone="no"?>
<!DOCTYPE svg PUBLIC "-//W3C//DTD SVG 20010904//EN"
 "http://www.w3.org/TR/2001/REC-SVG-20010904/DTD/svg10.dtd">
<svg version="1.0" xmlns="http://www.w3.org/2000/svg"
 width="260.000000pt" height="260.000000pt" viewBox="0 0 260.000000 260.000000"
 preserveAspectRatio="xMidYMid meet">
<metadata>
Created by potrace 1.14, written by Peter Selinger 2001-2017
</metadata>
<g transform="translate(0.000000,260.000000) scale(0.100000,-0.100000)"
fill="#000000" stroke="none">
<path d="M900 1805 c-25 -8 -76 -23 -115 -35 -58 -18 -88 -21 -175 -17 -62 3
-123 11 -149 21 -24 9 -46 15 -47 13 -2 -2 9 -32 24 -67 l27 -65 0 -370 0
-370 -31 -63 -30 -62 203 0 c112 0 203 2 203 5 0 3 -7 16 -14 28 -31 46 -45
138 -52 329 -7 204 4 348 31 429 34 98 114 158 212 159 139 0 180 -143 170
-595 -4 -188 -6 -216 -27 -270 -12 -33 -27 -66 -33 -72 -7 -10 33 -13 195 -13
l205 0 -23 48 c-35 74 -44 150 -44 379 0 240 10 325 49 404 36 75 88 109 175
116 82 7 109 -8 141 -80 39 -86 47 -178 43 -467 -4 -280 -1 -258 -53 -382 -7
-17 6 -18 193 -18 l201 0 -26 63 c-25 59 -27 75 -34 307 -11 332 -40 440 -146
547 -97 98 -263 138 -404 97 -70 -21 -111 -46 -180 -112 l-57 -53 -22 36 c-32
51 -99 102 -165 125 -68 23 -176 25 -245 5z"/>
</g>
</svg>
